<?xml version="1.0" standalone="no"?>
<!DOCTYPE svg PUBLIC "-//W3C//DTD SVG 20010904//EN"
 "http://www.w3.org/TR/2001/REC-SVG-20010904/DTD/svg10.dtd">
<svg version="1.0" xmlns="http://www.w3.org/2000/svg"
 width="512.000000pt" height="512.000000pt" viewBox="0 0 512.000000 512.000000"
 preserveAspectRatio="xMidYMid meet">
<metadata>
Created by potrace 1.14, written by Peter Selinger 2001-2017
</metadata>
<g transform="translate(0.000000,512.000000) scale(0.100000,-0.100000)"
fill="#000000" stroke="none">
<path d="M1275 5113 c-76 -10 -266 -57 -336 -83 -193 -71 -359 -180 -515 -335
-204 -204 -326 -427 -396 -728 -22 -91 -22 -99 -25 -1367 -2 -1344 -2 -1343
42 -1515 42 -162 119 -330 218 -473 63 -92 226 -260 321 -330 195 -143 437
-240 676 -271 89 -11 2590 -9 2635 2 16 5 60 15 98 23 512 107 945 523 1077
1033 49 188 48 168 48 1491 0 1322 1 1301 -47 1490 -37 143 -119 320 -214 459
-67 99 -251 282 -348 349 -138 94 -363 197 -472 217 -25 5 -96 21 -142 32 -31
7 -2566 13 -2620 6z"/>
</g>
</svg>
